<svg width="32" height="32" viewBox="0 0 32 32" fill="none" xmlns="http://www.w3.org/2000/svg">
<circle cx="16" cy="16" r="15.5" fill="#F4F4F4" stroke="#E2E8F0"/>
<path d="M9.51499 19.8354C10.7628 21.3005 12.4307 22.3468 14.2928 22.8329C15.9678 23.1762 17.7082 22.9878 19.2709 22.2938C20.0502 21.9353 20.7576 21.4376 21.3581 20.8251C21.3838 20.7811 21.3917 20.7289 21.3801 20.6793C21.3685 20.6297 21.3382 20.5864 21.2956 20.5585C21.215 20.5288 21.1266 20.5282 21.0456 20.5569C19.9018 21.1512 18.6734 21.5658 17.4034 21.7863C16.0717 21.9332 14.7243 21.8397 13.4256 21.5104C12.0973 21.0704 10.8426 20.4331 9.70374 19.6201C9.6747 19.6106 9.64355 19.6099 9.61411 19.618C9.58468 19.6261 9.55826 19.6426 9.53812 19.6656C9.51797 19.6885 9.50499 19.7168 9.50077 19.7471C9.49655 19.7773 9.50127 19.8081 9.51436 19.8357L9.51499 19.8354Z" fill="#1E293B"/>
<path d="M20.0984 20.1388C20.6021 20.041 21.1173 20.0175 21.6278 20.0691L21.6487 20.0731C21.7292 20.0926 21.7986 20.1432 21.8418 20.2138C21.8849 20.2844 21.8983 20.3692 21.8791 20.4497C21.7791 20.9467 21.6204 21.4301 21.4062 21.8897C21.4001 21.9098 21.402 21.9314 21.4118 21.9501C21.4215 21.9687 21.4381 21.9827 21.4581 21.9891C21.4698 21.9927 21.4822 21.9936 21.4943 21.9916C21.5064 21.9896 21.5179 21.9848 21.5278 21.9775C21.8292 21.7352 22.0728 21.4288 22.241 21.0806C22.4091 20.7324 22.4976 20.3511 22.5 19.9644C22.5075 19.8682 22.479 19.7726 22.42 19.6962C22.361 19.6199 22.2756 19.5682 22.1806 19.5513C21.4323 19.4223 20.6629 19.5828 20.0284 20C20.0114 20.0124 20 20.031 19.9966 20.0518C19.9933 20.0726 19.9983 20.0939 20.0106 20.111C20.0205 20.1242 20.0343 20.134 20.05 20.139C20.0658 20.144 20.0827 20.1439 20.0984 20.1388Z" fill="#1E293B"/>
<path d="M17.5075 18.1537C17.2383 18.4518 16.9349 18.7171 16.6037 18.9444C15.9719 19.3177 15.2536 19.52 14.5197 19.5312C13.8708 19.5171 13.2425 19.3002 12.7231 18.9109C12.2988 18.523 11.9932 18.0226 11.8418 17.4679C11.6905 16.9132 11.6996 16.3269 11.8681 15.7772C12.0299 15.2902 12.2964 14.8446 12.649 14.4717C13.0016 14.0988 13.4316 13.8078 13.9087 13.619C14.9702 13.3001 16.0723 13.1364 17.1806 13.1331V11.9687C17.1445 11.7114 17.0246 11.473 16.8395 11.2907C16.6543 11.1083 16.4142 10.9921 16.1562 10.96C15.826 10.915 15.4897 10.959 15.1822 11.0875C14.966 11.1892 14.7767 11.3402 14.6294 11.5284C14.4822 11.7165 14.3811 11.9366 14.3344 12.1709C14.2999 12.2434 14.2432 12.3029 14.1724 12.3407C14.1016 12.3785 14.0206 12.3926 13.9412 12.3809L12.3506 12.2403C12.2794 12.2211 12.216 12.1802 12.1691 12.1233C12.1222 12.0664 12.0941 11.9963 12.0887 11.9228C12.2161 11.1446 12.6228 10.4397 13.2328 9.93999C14.0404 9.31488 15.0367 8.98336 16.0578 8.99999C17.004 9.00864 17.9241 9.31077 18.6912 9.86467C19.0084 10.1326 19.2598 10.4698 19.4262 10.8503C19.5925 11.2307 19.6693 11.6443 19.6506 12.059V16.0875C19.6703 16.4264 19.7552 16.7583 19.9006 17.065L20.3966 17.7909C20.4228 17.8457 20.4364 17.9057 20.4364 17.9664C20.4364 18.0271 20.4228 18.0871 20.3966 18.1419L18.9281 19.3828C18.8669 19.4161 18.7978 19.4324 18.7281 19.4299C18.6584 19.4275 18.5907 19.4065 18.5319 19.369C18.1491 19.0006 17.8058 18.5933 17.5075 18.1537ZM17.1762 14.5028C16.7162 14.4936 16.2562 14.5238 15.8012 14.5931C15.5264 14.6548 15.268 14.7748 15.0436 14.945C14.8191 15.1151 14.6337 15.3315 14.5 15.5794C14.3897 15.8501 14.3411 16.142 14.3577 16.4339C14.3743 16.7258 14.4557 17.0104 14.5959 17.2669C14.7672 17.4809 15.0032 17.6337 15.2686 17.7023C15.534 17.771 15.8145 17.7519 16.0681 17.6478C16.3676 17.4558 16.6217 17.201 16.8131 16.9011C17.0044 16.6013 17.1283 16.2634 17.1762 15.9109V14.5028Z" fill="#1E293B"/>
</svg>
