<svg width="32" height="32" viewBox="0 0 32 32" fill="none" xmlns="http://www.w3.org/2000/svg">
<circle cx="16" cy="16" r="15.5" fill="white" stroke="#E2E8F0"/>
<path fill-rule="evenodd" clip-rule="evenodd" d="M23 16.0422C23 12.1766 19.8656 9.04224 16 9.04224C12.1344 9.04224 9 12.1766 9 16.0422C9 19.536 11.5594 22.4319 14.9062 22.9575V18.0663H13.1284V16.0422H14.9062V14.5C14.9062 12.746 15.9516 11.7763 17.5503 11.7763C18.3162 11.7763 19.1175 11.9132 19.1175 11.9132V13.636H18.2344C17.3653 13.636 17.0934 14.1754 17.0934 14.7297V16.0422H19.0347L18.7247 18.0663H17.0938V22.9582C20.4406 22.4329 23 19.5369 23 16.0422Z" fill="#1E293B"/>
</svg>
