<svg width="97" height="19" viewBox="0 0 97 19" fill="none" xmlns="http://www.w3.org/2000/svg">
<path d="M6.296 18.168C5.176 18.168 4.168 17.976 3.272 17.592C2.376 17.192 1.672 16.632 1.16 15.912C0.648 15.192 0.392 14.352 0.392 13.392H3.32C3.384 14.112 3.664 14.704 4.16 15.168C4.672 15.632 5.384 15.864 6.296 15.864C7.24 15.864 7.976 15.64 8.504 15.192C9.032 14.728 9.296 14.136 9.296 13.416C9.296 12.856 9.128 12.4 8.792 12.048C8.472 11.696 8.064 11.424 7.568 11.232C7.088 11.04 6.416 10.832 5.552 10.608C4.464 10.32 3.576 10.032 2.888 9.744C2.216 9.44 1.64 8.976 1.16 8.352C0.68 7.728 0.44 6.896 0.44 5.856C0.44 4.896 0.68 4.056 1.16 3.336C1.64 2.616 2.312 2.064 3.176 1.68C4.04 1.296 5.04 1.104 6.176 1.104C7.792 1.104 9.112 1.512 10.136 2.328C11.176 3.128 11.752 4.232 11.864 5.64H8.84C8.792 5.032 8.504 4.512 7.976 4.08C7.448 3.648 6.752 3.432 5.888 3.432C5.104 3.432 4.464 3.632 3.968 4.032C3.472 4.432 3.224 5.008 3.224 5.76C3.224 6.272 3.376 6.696 3.68 7.032C4 7.352 4.4 7.608 4.88 7.8C5.36 7.992 6.016 8.2 6.848 8.424C7.952 8.728 8.848 9.032 9.536 9.336C10.24 9.64 10.832 10.112 11.312 10.752C11.808 11.376 12.056 12.216 12.056 13.272C12.056 14.12 11.824 14.92 11.36 15.672C10.912 16.424 10.248 17.032 9.368 17.496C8.504 17.944 7.48 18.168 6.296 18.168ZM16.3884 18.168C15.8924 18.168 15.4764 18 15.1404 17.664C14.8044 17.328 14.6364 16.912 14.6364 16.416C14.6364 15.92 14.8044 15.504 15.1404 15.168C15.4764 14.832 15.8924 14.664 16.3884 14.664C16.8684 14.664 17.2764 14.832 17.6124 15.168C17.9484 15.504 18.1164 15.92 18.1164 16.416C18.1164 16.912 17.9484 17.328 17.6124 17.664C17.2764 18 16.8684 18.168 16.3884 18.168ZM42.7934 1.32L37.8494 18H34.7534L31.2494 5.376L27.5294 18L24.4574 18.024L19.7294 1.32H22.6334L26.0894 14.904L29.8334 1.32H32.9054L36.3854 14.832L39.8654 1.32H42.7934ZM44.138 11.328C44.138 10 44.41 8.824 44.954 7.8C45.514 6.776 46.266 5.984 47.21 5.424C48.17 4.848 49.226 4.56 50.378 4.56C51.418 4.56 52.322 4.768 53.09 5.184C53.874 5.584 54.498 6.088 54.962 6.696V4.776H57.722V18H54.962V16.032C54.498 16.656 53.866 17.176 53.066 17.592C52.266 18.008 51.354 18.216 50.33 18.216C49.194 18.216 48.154 17.928 47.21 17.352C46.266 16.76 45.514 15.944 44.954 14.904C44.41 13.848 44.138 12.656 44.138 11.328ZM54.962 11.376C54.962 10.464 54.77 9.672 54.386 9C54.018 8.328 53.53 7.816 52.922 7.464C52.314 7.112 51.658 6.936 50.954 6.936C50.25 6.936 49.594 7.112 48.986 7.464C48.378 7.8 47.882 8.304 47.498 8.976C47.13 9.632 46.946 10.416 46.946 11.328C46.946 12.24 47.13 13.04 47.498 13.728C47.882 14.416 48.378 14.944 48.986 15.312C49.61 15.664 50.266 15.84 50.954 15.84C51.658 15.84 52.314 15.664 52.922 15.312C53.53 14.96 54.018 14.448 54.386 13.776C54.77 13.088 54.962 12.288 54.962 11.376ZM64.5076 7.008V14.328C64.5076 14.824 64.6196 15.184 64.8436 15.408C65.0836 15.616 65.4836 15.72 66.0436 15.72H67.7236V18H65.5636C64.3316 18 63.3876 17.712 62.7316 17.136C62.0756 16.56 61.7476 15.624 61.7476 14.328V7.008H60.1876V4.776H61.7476V1.488H64.5076V4.776H67.7236V7.008H64.5076ZM69.3333 11.376C69.3333 10.016 69.6053 8.824 70.1493 7.8C70.7093 6.76 71.4773 5.96 72.4533 5.4C73.4293 4.84 74.5493 4.56 75.8133 4.56C77.4133 4.56 78.7333 4.944 79.7733 5.712C80.8293 6.464 81.5413 7.544 81.9093 8.952H78.9573C78.7173 8.296 78.3333 7.784 77.8053 7.416C77.2773 7.048 76.6133 6.864 75.8133 6.864C74.6933 6.864 73.7973 7.264 73.1253 8.064C72.4693 8.848 72.1413 9.952 72.1413 11.376C72.1413 12.8 72.4693 13.912 73.1253 14.712C73.7973 15.512 74.6933 15.912 75.8133 15.912C77.3973 15.912 78.4453 15.216 78.9573 13.824H81.9093C81.5253 15.168 80.8053 16.24 79.7493 17.04C78.6933 17.824 77.3813 18.216 75.8133 18.216C74.5493 18.216 73.4293 17.936 72.4533 17.376C71.4773 16.8 70.7093 16 70.1493 14.976C69.6053 13.936 69.3333 12.736 69.3333 11.376ZM91.4759 4.56C92.4839 4.56 93.3799 4.776 94.1639 5.208C94.9639 5.64 95.5879 6.28 96.0359 7.128C96.4999 7.976 96.7319 9 96.7319 10.2V18H94.0199V10.608C94.0199 9.424 93.7239 8.52 93.1319 7.896C92.5399 7.256 91.7319 6.936 90.7079 6.936C89.6839 6.936 88.8679 7.256 88.2599 7.896C87.6679 8.52 87.3719 9.424 87.3719 10.608V18H84.6359V0.24H87.3719V6.312C87.8359 5.752 88.4199 5.32 89.1239 5.016C89.8439 4.712 90.6279 4.56 91.4759 4.56Z" fill="white"/>
</svg>
